  0
SECTION
  2
HEADER
  9
$ACADVER
  1
AC1009
  9
$FILLMODE
 70
 0
  9
$SPLFRAME
 70
 1
  9
$EXTMIN
 10
0
 20
0
 30
0.0
  9
$EXTMAX
 10
1058.33
 20
1058.33
 30
0.0
  0
ENDSEC
  0
SECTION
  2
TABLES
  0
TABLE
  2
LAYER
 70
1
  0
LAYER
  2
0
 70
     0
 62
     7
  6
CONTINUOUS
  0
ENDTAB
  0
ENDSEC
  0
SECTION
  2
ENTITIES
  0
LINE
  8
0
 62
     0
 10
224.696
 20
76.4575
 30
0.0
 11
225.009
 21
76.4452
 31
0.0
  0
LINE
  8
0
 62
     0
 10
225.009
 20
76.4452
 30
0.0
 11
225.322
 21
76.4081
 31
0.0
  0
LINE
  8
0
 62
     0
 10
225.322
 20
76.4081
 30
0.0
 11
225.629
 21
76.3475
 31
0.0
  0
LINE
  8
0
 62
     0
 10
225.629
 20
76.3475
 30
0.0
 11
225.932
 21
76.2621
 31
0.0
  0
LINE
  8
0
 62
     0
 10
225.932
 20
76.2621
 30
0.0
 11
226.227
 21
76.1531
 31
0.0
  0
LINE
  8
0
 62
     0
 10
226.227
 20
76.1531
 30
0.0
 11
226.511
 21
76.0222
 31
0.0
  0
LINE
  8
0
 62
     0
 10
226.511
 20
76.0222
 30
0.0
 11
226.785
 21
75.868
 31
0.0
  0
LINE
  8
0
 62
     0
 10
226.785
 20
75.868
 30
0.0
 11
227.047
 21
75.6941
 31
0.0
  0
LINE
  8
0
 62
     0
 10
227.047
 20
75.6941
 30
0.0
 11
227.294
 21
75.5001
 31
0.0
  0
LINE
  8
0
 62
     0
 10
227.294
 20
75.5001
 30
0.0
 11
227.525
 21
75.2863
 31
0.0
  0
LINE
  8
0
 62
     0
 10
227.525
 20
75.2863
 30
0.0
 11
227.737
 21
75.0549
 31
0.0
  0
LINE
  8
0
 62
     0
 10
227.737
 20
75.0549
 30
0.0
 11
227.933
 21
74.8097
 31
0.0
  0
LINE
  8
0
 62
     0
 10
227.933
 20
74.8097
 30
0.0
 11
228.107
 21
74.5476
 31
0.0
  0
LINE
  8
0
 62
     0
 10
228.107
 20
74.5476
 30
0.0
 11
228.261
 21
74.2735
 31
0.0
  0
LINE
  8
0
 62
     0
 10
228.261
 20
74.2735
 30
0.0
 11
228.392
 21
73.9881
 31
0.0
  0
LINE
  8
0
 62
     0
 10
228.392
 20
73.9881
 30
0.0
 11
228.501
 21
73.6946
 31
0.0
  0
LINE
  8
0
 62
     0
 10
228.501
 20
73.6946
 30
0.0
 11
228.585
 21
73.3915
 31
0.0
  0
LINE
  8
0
 62
     0
 10
228.585
 20
73.3915
 30
0.0
 11
228.647
 21
73.0829
 31
0.0
  0
LINE
  8
0
 62
     0
 10
228.647
 20
73.0829
 30
0.0
 11
228.684
 21
72.7714
 31
0.0
  0
LINE
  8
0
 62
     0
 10
228.684
 20
72.7714
 30
0.0
 11
228.695
 21
72.4574
 31
0.0
  0
LINE
  8
0
 62
     0
 10
228.695
 20
72.4574
 30
0.0
 11
228.696
 21
4.25676
 31
0.0
  0
LINE
  8
0
 62
     0
 10
228.696
 20
4.25676
 30
0.0
 11
228.684
 21
3.94395
 31
0.0
  0
LINE
  8
0
 62
     0
 10
228.684
 20
3.94395
 30
0.0
 11
228.647
 21
3.63114
 31
0.0
  0
LINE
  8
0
 62
     0
 10
228.647
 20
3.63114
 30
0.0
 11
228.585
 21
3.32383
 31
0.0
  0
LINE
  8
0
 62
     0
 10
228.585
 20
3.32383
 30
0.0
 11
228.501
 21
3.02066
 31
0.0
  0
LINE
  8
0
 62
     0
 10
228.501
 20
3.02066
 30
0.0
 11
228.392
 21
2.72576
 31
0.0
  0
LINE
  8
0
 62
     0
 10
228.392
 20
2.72576
 30
0.0
 11
228.261
 21
2.44189
 31
0.0
  0
LINE
  8
0
 62
     0
 10
228.261
 20
2.44189
 30
0.0
 11
228.107
 21
2.16765
 31
0.0
  0
LINE
  8
0
 62
     0
 10
228.107
 20
2.16765
 30
0.0
 11
227.933
 21
1.90583
 31
0.0
  0
LINE
  8
0
 62
     0
 10
227.933
 20
1.90583
 30
0.0
 11
227.737
 21
1.65916
 31
0.0
  0
LINE
  8
0
 62
     0
 10
227.737
 20
1.65916
 30
0.0
 11
227.525
 21
1.42765
 31
0.0
  0
LINE
  8
0
 62
     0
 10
227.525
 20
1.42765
 30
0.0
 11
227.294
 21
1.21543
 31
0.0
  0
LINE
  8
0
 62
     0
 10
227.294
 20
1.21543
 30
0.0
 11
227.047
 21
1.01975
 31
0.0
  0
LINE
  8
0
 62
     0
 10
227.047
 20
1.01975
 30
0.0
 11
226.785
 21
0.846116
 31
0.0
  0
LINE
  8
0
 62
     0
 10
226.785
 20
0.846116
 30
0.0
 11
226.511
 21
0.691776
 31
0.0
  0
LINE
  8
0
 62
     0
 10
226.511
 20
0.691776
 30
0.0
 11
226.227
 21
0.56086
 31
0.0
  0
LINE
  8
0
 62
     0
 10
226.227
 20
0.56086
 30
0.0
 11
225.932
 21
0.451997
 31
0.0
  0
LINE
  8
0
 62
     0
 10
225.932
 20
0.451997
 30
0.0
 11
225.629
 21
0.367937
 31
0.0
  0
LINE
  8
0
 62
     0
 10
225.629
 20
0.367937
 30
0.0
 11
225.322
 21
0.305925
 31
0.0
  0
LINE
  8
0
 62
     0
 10
225.322
 20
0.305925
 30
0.0
 11
225.009
 21
0.268718
 31
0.0
  0
LINE
  8
0
 62
     0
 10
225.009
 20
0.268718
 30
0.0
 11
224.696
 21
0.256315
 31
0.0
  0
LINE
  8
0
 62
     0
 10
224.696
 20
0.256315
 30
0.0
 11
4.09554
 21
0.256315
 31
0.0
  0
LINE
  8
0
 62
     0
 10
4.09554
 20
0.256315
 30
0.0
 11
3.78135
 21
0.268718
 31
0.0
  0
LINE
  8
0
 62
     0
 10
3.78135
 20
0.268718
 30
0.0
 11
3.4699
 21
0.305925
 31
0.0
  0
LINE
  8
0
 62
     0
 10
3.4699
 20
0.305925
 30
0.0
 11
3.16122
 21
0.367937
 31
0.0
  0
LINE
  8
0
 62
     0
 10
3.16122
 20
0.367937
 30
0.0
 11
2.85805
 21
0.451997
 31
0.0
  0
LINE
  8
0
 62
     0
 10
2.85805
 20
0.451997
 30
0.0
 11
2.56453
 21
0.56086
 31
0.0
  0
LINE
  8
0
 62
     0
 10
2.56453
 20
0.56086
 30
0.0
 11
2.27928
 21
0.691776
 31
0.0
  0
LINE
  8
0
 62
     0
 10
2.27928
 20
0.691776
 30
0.0
 11
2.00504
 21
0.846116
 31
0.0
  0
LINE
  8
0
 62
     0
 10
2.00504
 20
0.846116
 30
0.0
 11
1.74322
 21
1.01975
 31
0.0
  0
LINE
  8
0
 62
     0
 10
1.74322
 20
1.01975
 30
0.0
 11
1.49793
 21
1.21543
 31
0.0
  0
LINE
  8
0
 62
     0
 10
1.49793
 20
1.21543
 30
0.0
 11
1.26642
 21
1.42765
 31
0.0
  0
LINE
  8
0
 62
     0
 10
1.26642
 20
1.42765
 30
0.0
 11
1.05282
 21
1.65916
 31
0.0
  0
LINE
  8
0
 62
     0
 10
1.05282
 20
1.65916
 30
0.0
 11
0.858516
 21
1.90583
 31
0.0
  0
LINE
  8
0
 62
     0
 10
0.858516
 20
1.90583
 30
0.0
 11
0.684886
 21
2.16765
 31
0.0
  0
LINE
  8
0
 62
     0
 10
0.684886
 20
2.16765
 30
0.0
 11
0.530546
 21
2.44189
 31
0.0
  0
LINE
  8
0
 62
     0
 10
0.530546
 20
2.44189
 30
0.0
 11
0.39963
 21
2.72576
 31
0.0
  0
LINE
  8
0
 62
     0
 10
0.39963
 20
2.72576
 30
0.0
 11
0.290766
 21
3.02066
 31
0.0
  0
LINE
  8
0
 62
     0
 10
0.290766
 20
3.02066
 30
0.0
 11
0.205328
 21
3.32383
 31
0.0
  0
LINE
  8
0
 62
     0
 10
0.205328
 20
3.32383
 30
0.0
 11
0.144694
 21
3.63114
 31
0.0
  0
LINE
  8
0
 62
     0
 10
0.144694
 20
3.63114
 30
0.0
 11
0.107487
 21
3.94395
 31
0.0
  0
LINE
  8
0
 62
     0
 10
0.107487
 20
3.94395
 30
0.0
 11
0.0950846
 21
4.25676
 31
0.0
  0
LINE
  8
0
 62
     0
 10
0.0950846
 20
4.25676
 30
0.0
 11
0.0950846
 21
72.4574
 31
0.0
  0
LINE
  8
0
 62
     0
 10
0.0950846
 20
72.4574
 30
0.0
 11
0.107487
 21
72.7714
 31
0.0
  0
LINE
  8
0
 62
     0
 10
0.107487
 20
72.7714
 30
0.0
 11
0.144694
 21
73.0829
 31
0.0
  0
LINE
  8
0
 62
     0
 10
0.144694
 20
73.0829
 30
0.0
 11
0.205328
 21
73.3915
 31
0.0
  0
LINE
  8
0
 62
     0
 10
0.205328
 20
73.3915
 30
0.0
 11
0.290766
 21
73.6946
 31
0.0
  0
LINE
  8
0
 62
     0
 10
0.290766
 20
73.6946
 30
0.0
 11
0.39963
 21
73.9881
 31
0.0
  0
LINE
  8
0
 62
     0
 10
0.39963
 20
73.9881
 30
0.0
 11
0.530546
 21
74.2735
 31
0.0
  0
LINE
  8
0
 62
     0
 10
0.530546
 20
74.2735
 30
0.0
 11
0.684886
 21
74.5476
 31
0.0
  0
LINE
  8
0
 62
     0
 10
0.684886
 20
74.5476
 30
0.0
 11
0.858516
 21
74.8097
 31
0.0
  0
LINE
  8
0
 62
     0
 10
0.858516
 20
74.8097
 30
0.0
 11
1.05282
 21
75.0549
 31
0.0
  0
LINE
  8
0
 62
     0
 10
1.05282
 20
75.0549
 30
0.0
 11
1.26642
 21
75.2863
 31
0.0
  0
LINE
  8
0
 62
     0
 10
1.26642
 20
75.2863
 30
0.0
 11
1.49793
 21
75.5001
 31
0.0
  0
LINE
  8
0
 62
     0
 10
1.49793
 20
75.5001
 30
0.0
 11
1.74322
 21
75.6941
 31
0.0
  0
LINE
  8
0
 62
     0
 10
1.74322
 20
75.6941
 30
0.0
 11
2.00504
 21
75.868
 31
0.0
  0
LINE
  8
0
 62
     0
 10
2.00504
 20
75.868
 30
0.0
 11
2.27928
 21
76.0222
 31
0.0
  0
LINE
  8
0
 62
     0
 10
2.27928
 20
76.0222
 30
0.0
 11
2.56453
 21
76.1531
 31
0.0
  0
LINE
  8
0
 62
     0
 10
2.56453
 20
76.1531
 30
0.0
 11
2.85805
 21
76.2621
 31
0.0
  0
LINE
  8
0
 62
     0
 10
2.85805
 20
76.2621
 30
0.0
 11
3.16122
 21
76.3475
 31
0.0
  0
LINE
  8
0
 62
     0
 10
3.16122
 20
76.3475
 30
0.0
 11
3.4699
 21
76.4081
 31
0.0
  0
LINE
  8
0
 62
     0
 10
3.4699
 20
76.4081
 30
0.0
 11
3.78135
 21
76.4452
 31
0.0
  0
LINE
  8
0
 62
     0
 10
3.78135
 20
76.4452
 30
0.0
 11
4.09554
 21
76.4575
 31
0.0
  0
LINE
  8
0
 62
     0
 10
4.09554
 20
76.4575
 30
0.0
 11
224.696
 21
76.4575
 31
0.0
  0
LINE
  8
0
 62
     0
 10
114.538
 20
16.7817
 30
0.0
 11
114.538
 21
12.0826
 31
0.0
  0
LINE
  8
0
 62
     0
 10
114.538
 20
12.0826
 30
0.0
 11
74.9131
 21
12.0826
 31
0.0
  0
LINE
  8
0
 62
     0
 10
74.9131
 20
12.0826
 30
0.0
 11
74.9131
 21
15.3128
 31
0.0
  0
LINE
  8
0
 62
     0
 10
74.9131
 20
15.3128
 30
0.0
 11
73.189
 21
15.3128
 31
0.0
  0
LINE
  8
0
 62
     0
 10
73.189
 20
15.3128
 30
0.0
 11
73.189
 21
16.2333
 31
0.0
  0
LINE
  8
0
 62
     0
 10
73.189
 20
16.2333
 30
0.0
 11
69.8885
 21
16.2333
 31
0.0
  0
LINE
  8
0
 62
     0
 10
69.8885
 20
16.2333
 30
0.0
 11
69.8885
 21
15.3128
 31
0.0
  0
LINE
  8
0
 62
     0
 10
69.8885
 20
15.3128
 30
0.0
 11
68.1634
 21
15.3128
 31
0.0
  0
LINE
  8
0
 62
     0
 10
68.1634
 20
15.3128
 30
0.0
 11
68.1634
 21
12.0826
 31
0.0
  0
LINE
  8
0
 62
     0
 10
68.1634
 20
12.0826
 30
0.0
 11
67.3379
 21
12.0826
 31
0.0
  0
LINE
  8
0
 62
     0
 10
67.3379
 20
12.0826
 30
0.0
 11
67.3379
 21
9.28247
 31
0.0
  0
LINE
  8
0
 62
     0
 10
67.3379
 20
9.28247
 30
0.0
 11
68.1634
 21
9.28247
 31
0.0
  0
LINE
  8
0
 62
     0
 10
68.1634
 20
9.28247
 30
0.0
 11
68.1634
 21
3.01239
 31
0.0
  0
LINE
  8
0
 62
     0
 10
68.1634
 20
3.01239
 30
0.0
 11
69.8885
 21
3.01239
 31
0.0
  0
LINE
  8
0
 62
     0
 10
69.8885
 20
3.01239
 30
0.0
 11
69.8885
 21
2.03261
 31
0.0
  0
LINE
  8
0
 62
     0
 10
69.8885
 20
2.03261
 30
0.0
 11
73.189
 21
2.03261
 31
0.0
  0
LINE
  8
0
 62
     0
 10
73.189
 20
2.03261
 30
0.0
 11
73.189
 21
3.01239
 31
0.0
  0
LINE
  8
0
 62
     0
 10
73.189
 20
3.01239
 30
0.0
 11
74.9131
 21
3.01239
 31
0.0
  0
LINE
  8
0
 62
     0
 10
74.9131
 20
3.01239
 30
0.0
 11
74.9131
 21
7.48273
 31
0.0
  0
LINE
  8
0
 62
     0
 10
74.9131
 20
7.48273
 30
0.0
 11
114.538
 21
7.48273
 31
0.0
  0
LINE
  8
0
 62
     0
 10
114.538
 20
7.48273
 30
0.0
 11
114.538
 21
2.78226
 31
0.0
  0
LINE
  8
0
 62
     0
 10
114.538
 20
2.78226
 30
0.0
 11
128.538
 21
2.78226
 31
0.0
  0
LINE
  8
0
 62
     0
 10
128.538
 20
2.78226
 30
0.0
 11
128.538
 21
7.48273
 31
0.0
  0
LINE
  8
0
 62
     0
 10
128.538
 20
7.48273
 30
0.0
 11
168.164
 21
7.48273
 31
0.0
  0
LINE
  8
0
 62
     0
 10
168.164
 20
7.48273
 30
0.0
 11
168.164
 21
3.01239
 31
0.0
  0
LINE
  8
0
 62
     0
 10
168.164
 20
3.01239
 30
0.0
 11
169.889
 21
3.01239
 31
0.0
  0
LINE
  8
0
 62
     0
 10
169.889
 20
3.01239
 30
0.0
 11
169.889
 21
2.03261
 31
0.0
  0
LINE
  8
0
 62
     0
 10
169.889
 20
2.03261
 30
0.0
 11
173.189
 21
2.03261
 31
0.0
  0
LINE
  8
0
 62
     0
 10
173.189
 20
2.03261
 30
0.0
 11
173.189
 21
3.01239
 31
0.0
  0
LINE
  8
0
 62
     0
 10
173.189
 20
3.01239
 30
0.0
 11
174.913
 21
3.01239
 31
0.0
  0
LINE
  8
0
 62
     0
 10
174.913
 20
3.01239
 30
0.0
 11
174.913
 21
9.28247
 31
0.0
  0
LINE
  8
0
 62
     0
 10
174.913
 20
9.28247
 30
0.0
 11
175.738
 21
9.28247
 31
0.0
  0
LINE
  8
0
 62
     0
 10
175.738
 20
9.28247
 30
0.0
 11
175.738
 21
12.0826
 31
0.0
  0
LINE
  8
0
 62
     0
 10
175.738
 20
12.0826
 30
0.0
 11
174.913
 21
12.0826
 31
0.0
  0
LINE
  8
0
 62
     0
 10
174.913
 20
12.0826
 30
0.0
 11
174.913
 21
15.3128
 31
0.0
  0
LINE
  8
0
 62
     0
 10
174.913
 20
15.3128
 30
0.0
 11
173.189
 21
15.3128
 31
0.0
  0
LINE
  8
0
 62
     0
 10
173.189
 20
15.3128
 30
0.0
 11
173.189
 21
16.2333
 31
0.0
  0
LINE
  8
0
 62
     0
 10
173.189
 20
16.2333
 30
0.0
 11
169.889
 21
16.2333
 31
0.0
  0
LINE
  8
0
 62
     0
 10
169.889
 20
16.2333
 30
0.0
 11
169.889
 21
15.3128
 31
0.0
  0
LINE
  8
0
 62
     0
 10
169.889
 20
15.3128
 30
0.0
 11
168.164
 21
15.3128
 31
0.0
  0
LINE
  8
0
 62
     0
 10
168.164
 20
15.3128
 30
0.0
 11
168.164
 21
12.0826
 31
0.0
  0
LINE
  8
0
 62
     0
 10
168.164
 20
12.0826
 30
0.0
 11
128.538
 21
12.0826
 31
0.0
  0
LINE
  8
0
 62
     0
 10
128.538
 20
12.0826
 30
0.0
 11
128.538
 21
16.7817
 31
0.0
  0
LINE
  8
0
 62
     0
 10
128.538
 20
16.7817
 30
0.0
 11
114.538
 21
16.7817
 31
0.0
  0
LINE
  8
0
 62
     0
 10
5.00091
 20
16.7817
 30
0.0
 11
19.0018
 21
16.7817
 31
0.0
  0
LINE
  8
0
 62
     0
 10
19.0018
 20
16.7817
 30
0.0
 11
19.0018
 21
2.78226
 31
0.0
  0
LINE
  8
0
 62
     0
 10
19.0018
 20
2.78226
 30
0.0
 11
5.00091
 21
2.78226
 31
0.0
  0
LINE
  8
0
 62
     0
 10
5.00091
 20
2.78226
 30
0.0
 11
5.00091
 21
16.7817
 31
0.0
  0
LINE
  8
0
 62
     0
 10
26.4322
 20
16.7817
 30
0.0
 11
40.4329
 21
16.7817
 31
0.0
  0
LINE
  8
0
 62
     0
 10
40.4329
 20
16.7817
 30
0.0
 11
40.4329
 21
2.78226
 31
0.0
  0
LINE
  8
0
 62
     0
 10
40.4329
 20
2.78226
 30
0.0
 11
26.4322
 21
2.78226
 31
0.0
  0
LINE
  8
0
 62
     0
 10
26.4322
 20
2.78226
 30
0.0
 11
26.4322
 21
16.7817
 31
0.0
  0
LINE
  8
0
 62
     0
 10
45.4822
 20
16.7817
 30
0.0
 11
59.4829
 21
16.7817
 31
0.0
  0
LINE
  8
0
 62
     0
 10
59.4829
 20
16.7817
 30
0.0
 11
59.4829
 21
2.78226
 31
0.0
  0
LINE
  8
0
 62
     0
 10
59.4829
 20
2.78226
 30
0.0
 11
45.4822
 21
2.78226
 31
0.0
  0
LINE
  8
0
 62
     0
 10
45.4822
 20
2.78226
 30
0.0
 11
45.4822
 21
16.7817
 31
0.0
  0
LINE
  8
0
 62
     0
 10
185.976
 20
16.7817
 30
0.0
 11
199.977
 21
16.7817
 31
0.0
  0
LINE
  8
0
 62
     0
 10
199.977
 20
16.7817
 30
0.0
 11
199.977
 21
2.78226
 31
0.0
  0
LINE
  8
0
 62
     0
 10
199.977
 20
2.78226
 30
0.0
 11
185.976
 21
2.78226
 31
0.0
  0
LINE
  8
0
 62
     0
 10
185.976
 20
2.78226
 30
0.0
 11
185.976
 21
16.7817
 31
0.0
  0
LINE
  8
0
 62
     0
 10
209.788
 20
16.7817
 30
0.0
 11
223.788
 21
16.7817
 31
0.0
  0
LINE
  8
0
 62
     0
 10
223.788
 20
16.7817
 30
0.0
 11
223.788
 21
2.78226
 31
0.0
  0
LINE
  8
0
 62
     0
 10
223.788
 20
2.78226
 30
0.0
 11
209.788
 21
2.78226
 31
0.0
  0
LINE
  8
0
 62
     0
 10
209.788
 20
2.78226
 30
0.0
 11
209.788
 21
16.7817
 31
0.0
  0
LINE
  8
0
 62
     0
 10
9.76341
 20
35.8316
 30
0.0
 11
23.7629
 21
35.8316
 31
0.0
  0
LINE
  8
0
 62
     0
 10
23.7629
 20
35.8316
 30
0.0
 11
23.7629
 21
21.8323
 31
0.0
  0
LINE
  8
0
 62
     0
 10
23.7629
 20
21.8323
 30
0.0
 11
9.76341
 21
21.8323
 31
0.0
  0
LINE
  8
0
 62
     0
 10
9.76341
 20
21.8323
 30
0.0
 11
9.76341
 21
35.8316
 31
0.0
  0
LINE
  8
0
 62
     0
 10
35.9572
 20
35.8316
 30
0.0
 11
49.9579
 21
35.8316
 31
0.0
  0
LINE
  8
0
 62
     0
 10
49.9579
 20
35.8316
 30
0.0
 11
49.9579
 21
21.8323
 31
0.0
  0
LINE
  8
0
 62
     0
 10
49.9579
 20
21.8323
 30
0.0
 11
35.9572
 21
21.8323
 31
0.0
  0
LINE
  8
0
 62
     0
 10
35.9572
 20
21.8323
 30
0.0
 11
35.9572
 21
35.8316
 31
0.0
  0
LINE
  8
0
 62
     0
 10
55.0072
 20
35.8316
 30
0.0
 11
69.0079
 21
35.8316
 31
0.0
  0
LINE
  8
0
 62
     0
 10
69.0079
 20
35.8316
 30
0.0
 11
69.0079
 21
21.8323
 31
0.0
  0
LINE
  8
0
 62
     0
 10
69.0079
 20
21.8323
 30
0.0
 11
55.0072
 21
21.8323
 31
0.0
  0
LINE
  8
0
 62
     0
 10
55.0072
 20
21.8323
 30
0.0
 11
55.0072
 21
35.8316
 31
0.0
  0
LINE
  8
0
 62
     0
 10
74.0572
 20
35.8316
 30
0.0
 11
88.0579
 21
35.8316
 31
0.0
  0
LINE
  8
0
 62
     0
 10
88.0579
 20
35.8316
 30
0.0
 11
88.0579
 21
21.8323
 31
0.0
  0
LINE
  8
0
 62
     0
 10
88.0579
 20
21.8323
 30
0.0
 11
74.0572
 21
21.8323
 31
0.0
  0
LINE
  8
0
 62
     0
 10
74.0572
 20
21.8323
 30
0.0
 11
74.0572
 21
35.8316
 31
0.0
  0
LINE
  8
0
 62
     0
 10
93.1072
 20
35.8316
 30
0.0
 11
107.108
 21
35.8316
 31
0.0
  0
LINE
  8
0
 62
     0
 10
107.108
 20
35.8316
 30
0.0
 11
107.108
 21
21.8323
 31
0.0
  0
LINE
  8
0
 62
     0
 10
107.108
 20
21.8323
 30
0.0
 11
93.1072
 21
21.8323
 31
0.0
  0
LINE
  8
0
 62
     0
 10
93.1072
 20
21.8323
 30
0.0
 11
93.1072
 21
35.8316
 31
0.0
  0
LINE
  8
0
 62
     0
 10
112.157
 20
35.8316
 30
0.0
 11
126.158
 21
35.8316
 31
0.0
  0
LINE
  8
0
 62
     0
 10
126.158
 20
35.8316
 30
0.0
 11
126.158
 21
21.8323
 31
0.0
  0
LINE
  8
0
 62
     0
 10
126.158
 20
21.8323
 30
0.0
 11
112.157
 21
21.8323
 31
0.0
  0
LINE
  8
0
 62
     0
 10
112.157
 20
21.8323
 30
0.0
 11
112.157
 21
35.8316
 31
0.0
  0
LINE
  8
0
 62
     0
 10
131.207
 20
35.8316
 30
0.0
 11
145.208
 21
35.8316
 31
0.0
  0
LINE
  8
0
 62
     0
 10
145.208
 20
35.8316
 30
0.0
 11
145.208
 21
21.8323
 31
0.0
  0
LINE
  8
0
 62
     0
 10
145.208
 20
21.8323
 30
0.0
 11
131.207
 21
21.8323
 31
0.0
  0
LINE
  8
0
 62
     0
 10
131.207
 20
21.8323
 30
0.0
 11
131.207
 21
35.8316
 31
0.0
  0
LINE
  8
0
 62
     0
 10
150.257
 20
35.8316
 30
0.0
 11
164.258
 21
35.8316
 31
0.0
  0
LINE
  8
0
 62
     0
 10
164.258
 20
35.8316
 30
0.0
 11
164.258
 21
21.8323
 31
0.0
  0
LINE
  8
0
 62
     0
 10
164.258
 20
21.8323
 30
0.0
 11
150.257
 21
21.8323
 31
0.0
  0
LINE
  8
0
 62
     0
 10
150.257
 20
21.8323
 30
0.0
 11
150.257
 21
35.8316
 31
0.0
  0
LINE
  8
0
 62
     0
 10
169.307
 20
35.8316
 30
0.0
 11
183.308
 21
35.8316
 31
0.0
  0
LINE
  8
0
 62
     0
 10
183.308
 20
35.8316
 30
0.0
 11
183.308
 21
21.8323
 31
0.0
  0
LINE
  8
0
 62
     0
 10
183.308
 20
21.8323
 30
0.0
 11
169.307
 21
21.8323
 31
0.0
  0
LINE
  8
0
 62
     0
 10
169.307
 20
21.8323
 30
0.0
 11
169.307
 21
35.8316
 31
0.0
  0
LINE
  8
0
 62
     0
 10
190.738
 20
35.8316
 30
0.0
 11
204.738
 21
35.8316
 31
0.0
  0
LINE
  8
0
 62
     0
 10
204.738
 20
35.8316
 30
0.0
 11
204.738
 21
21.8323
 31
0.0
  0
LINE
  8
0
 62
     0
 10
204.738
 20
21.8323
 30
0.0
 11
190.738
 21
21.8323
 31
0.0
  0
LINE
  8
0
 62
     0
 10
190.738
 20
21.8323
 30
0.0
 11
190.738
 21
35.8316
 31
0.0
  0
LINE
  8
0
 62
     0
 10
212.171
 20
35.8316
 30
0.0
 11
226.17
 21
35.8316
 31
0.0
  0
LINE
  8
0
 62
     0
 10
226.17
 20
35.8316
 30
0.0
 11
226.17
 21
21.8323
 31
0.0
  0
LINE
  8
0
 62
     0
 10
226.17
 20
21.8323
 30
0.0
 11
212.171
 21
21.8323
 31
0.0
  0
LINE
  8
0
 62
     0
 10
212.171
 20
21.8323
 30
0.0
 11
212.171
 21
35.8316
 31
0.0
  0
LINE
  8
0
 62
     0
 10
5.00091
 20
54.8816
 30
0.0
 11
19.0018
 21
54.8816
 31
0.0
  0
LINE
  8
0
 62
     0
 10
19.0018
 20
54.8816
 30
0.0
 11
19.0018
 21
40.8824
 31
0.0
  0
LINE
  8
0
 62
     0
 10
19.0018
 20
40.8824
 30
0.0
 11
5.00091
 21
40.8824
 31
0.0
  0
LINE
  8
0
 62
     0
 10
5.00091
 20
40.8824
 30
0.0
 11
5.00091
 21
54.8816
 31
0.0
  0
LINE
  8
0
 62
     0
 10
26.4322
 20
54.8816
 30
0.0
 11
40.4329
 21
54.8816
 31
0.0
  0
LINE
  8
0
 62
     0
 10
40.4329
 20
54.8816
 30
0.0
 11
40.4329
 21
40.8824
 31
0.0
  0
LINE
  8
0
 62
     0
 10
40.4329
 20
40.8824
 30
0.0
 11
26.4322
 21
40.8824
 31
0.0
  0
LINE
  8
0
 62
     0
 10
26.4322
 20
40.8824
 30
0.0
 11
26.4322
 21
54.8816
 31
0.0
  0
LINE
  8
0
 62
     0
 10
45.4822
 20
54.8816
 30
0.0
 11
59.4829
 21
54.8816
 31
0.0
  0
LINE
  8
0
 62
     0
 10
59.4829
 20
54.8816
 30
0.0
 11
59.4829
 21
40.8824
 31
0.0
  0
LINE
  8
0
 62
     0
 10
59.4829
 20
40.8824
 30
0.0
 11
45.4822
 21
40.8824
 31
0.0
  0
LINE
  8
0
 62
     0
 10
45.4822
 20
40.8824
 30
0.0
 11
45.4822
 21
54.8816
 31
0.0
  0
LINE
  8
0
 62
     0
 10
64.5322
 20
54.8816
 30
0.0
 11
78.5329
 21
54.8816
 31
0.0
  0
LINE
  8
0
 62
     0
 10
78.5329
 20
54.8816
 30
0.0
 11
78.5329
 21
40.8824
 31
0.0
  0
LINE
  8
0
 62
     0
 10
78.5329
 20
40.8824
 30
0.0
 11
64.5322
 21
40.8824
 31
0.0
  0
LINE
  8
0
 62
     0
 10
64.5322
 20
40.8824
 30
0.0
 11
64.5322
 21
54.8816
 31
0.0
  0
LINE
  8
0
 62
     0
 10
83.5822
 20
54.8816
 30
0.0
 11
97.5829
 21
54.8816
 31
0.0
  0
LINE
  8
0
 62
     0
 10
97.5829
 20
54.8816
 30
0.0
 11
97.5829
 21
40.8824
 31
0.0
  0
LINE
  8
0
 62
     0
 10
97.5829
 20
40.8824
 30
0.0
 11
83.5822
 21
40.8824
 31
0.0
  0
LINE
  8
0
 62
     0
 10
83.5822
 20
40.8824
 30
0.0
 11
83.5822
 21
54.8816
 31
0.0
  0
LINE
  8
0
 62
     0
 10
102.632
 20
54.8816
 30
0.0
 11
116.633
 21
54.8816
 31
0.0
  0
LINE
  8
0
 62
     0
 10
116.633
 20
54.8816
 30
0.0
 11
116.633
 21
40.8824
 31
0.0
  0
LINE
  8
0
 62
     0
 10
116.633
 20
40.8824
 30
0.0
 11
102.632
 21
40.8824
 31
0.0
  0
LINE
  8
0
 62
     0
 10
102.632
 20
40.8824
 30
0.0
 11
102.632
 21
54.8816
 31
0.0
  0
LINE
  8
0
 62
     0
 10
121.682
 20
54.8816
 30
0.0
 11
135.683
 21
54.8816
 31
0.0
  0
LINE
  8
0
 62
     0
 10
135.683
 20
54.8816
 30
0.0
 11
135.683
 21
40.8824
 31
0.0
  0
LINE
  8
0
 62
     0
 10
135.683
 20
40.8824
 30
0.0
 11
121.682
 21
40.8824
 31
0.0
  0
LINE
  8
0
 62
     0
 10
121.682
 20
40.8824
 30
0.0
 11
121.682
 21
54.8816
 31
0.0
  0
LINE
  8
0
 62
     0
 10
140.732
 20
54.8816
 30
0.0
 11
154.733
 21
54.8816
 31
0.0
  0
LINE
  8
0
 62
     0
 10
154.733
 20
54.8816
 30
0.0
 11
154.733
 21
40.8824
 31
0.0
  0
LINE
  8
0
 62
     0
 10
154.733
 20
40.8824
 30
0.0
 11
140.732
 21
40.8824
 31
0.0
  0
LINE
  8
0
 62
     0
 10
140.732
 20
40.8824
 30
0.0
 11
140.732
 21
54.8816
 31
0.0
  0
LINE
  8
0
 62
     0
 10
159.782
 20
54.8816
 30
0.0
 11
173.783
 21
54.8816
 31
0.0
  0
LINE
  8
0
 62
     0
 10
173.783
 20
54.8816
 30
0.0
 11
173.783
 21
40.8824
 31
0.0
  0
LINE
  8
0
 62
     0
 10
173.783
 20
40.8824
 30
0.0
 11
159.782
 21
40.8824
 31
0.0
  0
LINE
  8
0
 62
     0
 10
159.782
 20
40.8824
 30
0.0
 11
159.782
 21
54.8816
 31
0.0
  0
LINE
  8
0
 62
     0
 10
178.832
 20
54.8816
 30
0.0
 11
192.833
 21
54.8816
 31
0.0
  0
LINE
  8
0
 62
     0
 10
192.833
 20
54.8816
 30
0.0
 11
192.833
 21
40.8824
 31
0.0
  0
LINE
  8
0
 62
     0
 10
192.833
 20
40.8824
 30
0.0
 11
178.832
 21
40.8824
 31
0.0
  0
LINE
  8
0
 62
     0
 10
178.832
 20
40.8824
 30
0.0
 11
178.832
 21
54.8816
 31
0.0
  0
LINE
  8
0
 62
     0
 10
205.026
 20
54.8816
 30
0.0
 11
219.027
 21
54.8816
 31
0.0
  0
LINE
  8
0
 62
     0
 10
219.027
 20
54.8816
 30
0.0
 11
219.027
 21
40.8824
 31
0.0
  0
LINE
  8
0
 62
     0
 10
219.027
 20
40.8824
 30
0.0
 11
205.026
 21
40.8824
 31
0.0
  0
LINE
  8
0
 62
     0
 10
205.026
 20
40.8824
 30
0.0
 11
205.026
 21
54.8816
 31
0.0
  0
LINE
  8
0
 62
     0
 10
2.62103
 20
73.9316
 30
0.0
 11
16.6205
 21
73.9316
 31
0.0
  0
LINE
  8
0
 62
     0
 10
16.6205
 20
73.9316
 30
0.0
 11
16.6205
 21
59.9324
 31
0.0
  0
LINE
  8
0
 62
     0
 10
16.6205
 20
59.9324
 30
0.0
 11
2.62103
 21
59.9324
 31
0.0
  0
LINE
  8
0
 62
     0
 10
2.62103
 20
59.9324
 30
0.0
 11
2.62103
 21
73.9316
 31
0.0
  0
LINE
  8
0
 62
     0
 10
21.671
 20
73.9316
 30
0.0
 11
35.6704
 21
73.9316
 31
0.0
  0
LINE
  8
0
 62
     0
 10
35.6704
 20
73.9316
 30
0.0
 11
35.6704
 21
59.9324
 31
0.0
  0
LINE
  8
0
 62
     0
 10
35.6704
 20
59.9324
 30
0.0
 11
21.671
 21
59.9324
 31
0.0
  0
LINE
  8
0
 62
     0
 10
21.671
 20
59.9324
 30
0.0
 11
21.671
 21
73.9316
 31
0.0
  0
LINE
  8
0
 62
     0
 10
40.7211
 20
73.9316
 30
0.0
 11
54.7204
 21
73.9316
 31
0.0
  0
LINE
  8
0
 62
     0
 10
54.7204
 20
73.9316
 30
0.0
 11
54.7204
 21
59.9324
 31
0.0
  0
LINE
  8
0
 62
     0
 10
54.7204
 20
59.9324
 30
0.0
 11
40.7211
 21
59.9324
 31
0.0
  0
LINE
  8
0
 62
     0
 10
40.7211
 20
59.9324
 30
0.0
 11
40.7211
 21
73.9316
 31
0.0
  0
LINE
  8
0
 62
     0
 10
59.7711
 20
73.9316
 30
0.0
 11
73.7704
 21
73.9316
 31
0.0
  0
LINE
  8
0
 62
     0
 10
73.7704
 20
73.9316
 30
0.0
 11
73.7704
 21
59.9324
 31
0.0
  0
LINE
  8
0
 62
     0
 10
73.7704
 20
59.9324
 30
0.0
 11
59.7711
 21
59.9324
 31
0.0
  0
LINE
  8
0
 62
     0
 10
59.7711
 20
59.9324
 30
0.0
 11
59.7711
 21
73.9316
 31
0.0
  0
LINE
  8
0
 62
     0
 10
78.8211
 20
73.9316
 30
0.0
 11
92.8204
 21
73.9316
 31
0.0
  0
LINE
  8
0
 62
     0
 10
92.8204
 20
73.9316
 30
0.0
 11
92.8204
 21
59.9324
 31
0.0
  0
LINE
  8
0
 62
     0
 10
92.8204
 20
59.9324
 30
0.0
 11
78.8211
 21
59.9324
 31
0.0
  0
LINE
  8
0
 62
     0
 10
78.8211
 20
59.9324
 30
0.0
 11
78.8211
 21
73.9316
 31
0.0
  0
LINE
  8
0
 62
     0
 10
97.8697
 20
73.9316
 30
0.0
 11
111.869
 21
73.9316
 31
0.0
  0
LINE
  8
0
 62
     0
 10
111.869
 20
73.9316
 30
0.0
 11
111.869
 21
59.9324
 31
0.0
  0
LINE
  8
0
 62
     0
 10
111.869
 20
59.9324
 30
0.0
 11
97.8697
 21
59.9324
 31
0.0
  0
LINE
  8
0
 62
     0
 10
97.8697
 20
59.9324
 30
0.0
 11
97.8697
 21
73.9316
 31
0.0
  0
LINE
  8
0
 62
     0
 10
116.92
 20
73.9316
 30
0.0
 11
130.92
 21
73.9316
 31
0.0
  0
LINE
  8
0
 62
     0
 10
130.92
 20
73.9316
 30
0.0
 11
130.92
 21
59.9324
 31
0.0
  0
LINE
  8
0
 62
     0
 10
130.92
 20
59.9324
 30
0.0
 11
116.92
 21
59.9324
 31
0.0
  0
LINE
  8
0
 62
     0
 10
116.92
 20
59.9324
 30
0.0
 11
116.92
 21
73.9316
 31
0.0
  0
LINE
  8
0
 62
     0
 10
135.971
 20
73.9316
 30
0.0
 11
149.97
 21
73.9316
 31
0.0
  0
LINE
  8
0
 62
     0
 10
149.97
 20
73.9316
 30
0.0
 11
149.97
 21
59.9324
 31
0.0
  0
LINE
  8
0
 62
     0
 10
149.97
 20
59.9324
 30
0.0
 11
135.971
 21
59.9324
 31
0.0
  0
LINE
  8
0
 62
     0
 10
135.971
 20
59.9324
 30
0.0
 11
135.971
 21
73.9316
 31
0.0
  0
LINE
  8
0
 62
     0
 10
155.021
 20
73.9316
 30
0.0
 11
169.02
 21
73.9316
 31
0.0
  0
LINE
  8
0
 62
     0
 10
169.02
 20
73.9316
 30
0.0
 11
169.02
 21
59.9324
 31
0.0
  0
LINE
  8
0
 62
     0
 10
169.02
 20
59.9324
 30
0.0
 11
155.021
 21
59.9324
 31
0.0
  0
LINE
  8
0
 62
     0
 10
155.021
 20
59.9324
 30
0.0
 11
155.021
 21
73.9316
 31
0.0
  0
LINE
  8
0
 62
     0
 10
174.071
 20
73.9316
 30
0.0
 11
188.07
 21
73.9316
 31
0.0
  0
LINE
  8
0
 62
     0
 10
188.07
 20
73.9316
 30
0.0
 11
188.07
 21
59.9324
 31
0.0
  0
LINE
  8
0
 62
     0
 10
188.07
 20
59.9324
 30
0.0
 11
174.071
 21
59.9324
 31
0.0
  0
LINE
  8
0
 62
     0
 10
174.071
 20
59.9324
 30
0.0
 11
174.071
 21
73.9316
 31
0.0
  0
LINE
  8
0
 62
     0
 10
193.121
 20
73.9316
 30
0.0
 11
207.12
 21
73.9316
 31
0.0
  0
LINE
  8
0
 62
     0
 10
207.12
 20
73.9316
 30
0.0
 11
207.12
 21
59.9324
 31
0.0
  0
LINE
  8
0
 62
     0
 10
207.12
 20
59.9324
 30
0.0
 11
193.121
 21
59.9324
 31
0.0
  0
LINE
  8
0
 62
     0
 10
193.121
 20
59.9324
 30
0.0
 11
193.121
 21
73.9316
 31
0.0
  0
LINE
  8
0
 62
     0
 10
212.171
 20
73.9316
 30
0.0
 11
226.17
 21
73.9316
 31
0.0
  0
LINE
  8
0
 62
     0
 10
226.17
 20
73.9316
 30
0.0
 11
226.17
 21
59.9324
 31
0.0
  0
LINE
  8
0
 62
     0
 10
226.17
 20
59.9324
 30
0.0
 11
212.171
 21
59.9324
 31
0.0
  0
LINE
  8
0
 62
     0
 10
212.171
 20
59.9324
 30
0.0
 11
212.171
 21
73.9316
 31
0.0
  0
ENDSEC
  0
EOF
